<mxfile host="app.diagrams.net" modified="2021-10-15T15:52:06.332Z" agent="5.0 (Windows NT 10.0; Win64; x64) AppleWebKit/537.36 (KHTML, like Gecko) Chrome/93.0.4577.82 Safari/537.36 OPR/79.0.4143.73" etag="PGK3xidtqp0k3mrCqtBZ" version="15.4.3" type="github">
  <diagram id="8IVRNrGf7Kx27zk80Dbp" name="Page-1">
    <mxGraphModel dx="1381" dy="795" grid="1" gridSize="10" guides="1" tooltips="1" connect="1" arrows="1" fold="1" page="1" pageScale="1" pageWidth="827" pageHeight="1169" math="0" shadow="0">
      <root>
        <mxCell id="0" />
        <mxCell id="1" parent="0" />
        <mxCell id="DlEKcKCL4bjcNaTzVcVd-2" style="edgeStyle=orthogonalEdgeStyle;rounded=0;orthogonalLoop=1;jettySize=auto;html=1;entryX=0.5;entryY=0;entryDx=0;entryDy=0;" edge="1" parent="1" source="DlEKcKCL4bjcNaTzVcVd-1" target="DlEKcKCL4bjcNaTzVcVd-11">
          <mxGeometry relative="1" as="geometry">
            <mxPoint x="390" y="200" as="targetPoint" />
          </mxGeometry>
        </mxCell>
        <mxCell id="DlEKcKCL4bjcNaTzVcVd-1" value="Volley App" style="rounded=1;whiteSpace=wrap;html=1;" vertex="1" parent="1">
          <mxGeometry x="330" y="90" width="120" height="60" as="geometry" />
        </mxCell>
        <mxCell id="DlEKcKCL4bjcNaTzVcVd-4" style="edgeStyle=orthogonalEdgeStyle;rounded=0;orthogonalLoop=1;jettySize=auto;html=1;exitX=0.5;exitY=1;exitDx=0;exitDy=0;" edge="1" parent="1" source="DlEKcKCL4bjcNaTzVcVd-11" target="DlEKcKCL4bjcNaTzVcVd-5">
          <mxGeometry relative="1" as="geometry">
            <mxPoint x="390" y="300" as="targetPoint" />
            <mxPoint x="390" y="260" as="sourcePoint" />
          </mxGeometry>
        </mxCell>
        <mxCell id="DlEKcKCL4bjcNaTzVcVd-12" value="No" style="edgeLabel;html=1;align=center;verticalAlign=middle;resizable=0;points=[];" vertex="1" connectable="0" parent="DlEKcKCL4bjcNaTzVcVd-4">
          <mxGeometry x="-0.2429" relative="1" as="geometry">
            <mxPoint as="offset" />
          </mxGeometry>
        </mxCell>
        <mxCell id="DlEKcKCL4bjcNaTzVcVd-6" style="edgeStyle=orthogonalEdgeStyle;rounded=0;orthogonalLoop=1;jettySize=auto;html=1;" edge="1" parent="1" source="DlEKcKCL4bjcNaTzVcVd-5" target="DlEKcKCL4bjcNaTzVcVd-7">
          <mxGeometry relative="1" as="geometry">
            <mxPoint x="620" y="380" as="targetPoint" />
          </mxGeometry>
        </mxCell>
        <mxCell id="DlEKcKCL4bjcNaTzVcVd-9" style="edgeStyle=orthogonalEdgeStyle;rounded=0;orthogonalLoop=1;jettySize=auto;html=1;" edge="1" parent="1" source="DlEKcKCL4bjcNaTzVcVd-5" target="DlEKcKCL4bjcNaTzVcVd-10">
          <mxGeometry relative="1" as="geometry">
            <mxPoint x="510" y="460" as="targetPoint" />
          </mxGeometry>
        </mxCell>
        <mxCell id="DlEKcKCL4bjcNaTzVcVd-5" value="Introduce tus datos" style="rounded=0;whiteSpace=wrap;html=1;" vertex="1" parent="1">
          <mxGeometry x="450" y="350" width="120" height="60" as="geometry" />
        </mxCell>
        <mxCell id="DlEKcKCL4bjcNaTzVcVd-7" value="Edad&lt;br&gt;Peso&lt;br&gt;Estatura" style="shape=cylinder3;whiteSpace=wrap;html=1;boundedLbl=1;backgroundOutline=1;size=15;" vertex="1" parent="1">
          <mxGeometry x="590" y="340" width="60" height="80" as="geometry" />
        </mxCell>
        <mxCell id="DlEKcKCL4bjcNaTzVcVd-17" style="edgeStyle=orthogonalEdgeStyle;rounded=0;orthogonalLoop=1;jettySize=auto;html=1;" edge="1" parent="1" source="DlEKcKCL4bjcNaTzVcVd-10" target="DlEKcKCL4bjcNaTzVcVd-18">
          <mxGeometry relative="1" as="geometry">
            <mxPoint x="270" y="580" as="targetPoint" />
          </mxGeometry>
        </mxCell>
        <mxCell id="DlEKcKCL4bjcNaTzVcVd-19" style="edgeStyle=orthogonalEdgeStyle;rounded=0;orthogonalLoop=1;jettySize=auto;html=1;" edge="1" parent="1" source="DlEKcKCL4bjcNaTzVcVd-10" target="DlEKcKCL4bjcNaTzVcVd-20">
          <mxGeometry relative="1" as="geometry">
            <mxPoint x="490" y="610" as="targetPoint" />
          </mxGeometry>
        </mxCell>
        <mxCell id="DlEKcKCL4bjcNaTzVcVd-21" style="edgeStyle=orthogonalEdgeStyle;rounded=0;orthogonalLoop=1;jettySize=auto;html=1;" edge="1" parent="1" source="DlEKcKCL4bjcNaTzVcVd-10" target="DlEKcKCL4bjcNaTzVcVd-22">
          <mxGeometry relative="1" as="geometry">
            <mxPoint x="390" y="710" as="targetPoint" />
          </mxGeometry>
        </mxCell>
        <mxCell id="DlEKcKCL4bjcNaTzVcVd-10" value="Inicio" style="rounded=0;whiteSpace=wrap;html=1;" vertex="1" parent="1">
          <mxGeometry x="330" y="470" width="120" height="60" as="geometry" />
        </mxCell>
        <mxCell id="DlEKcKCL4bjcNaTzVcVd-13" style="edgeStyle=orthogonalEdgeStyle;rounded=0;orthogonalLoop=1;jettySize=auto;html=1;entryX=0.5;entryY=0;entryDx=0;entryDy=0;" edge="1" parent="1" source="DlEKcKCL4bjcNaTzVcVd-11" target="DlEKcKCL4bjcNaTzVcVd-10">
          <mxGeometry relative="1" as="geometry">
            <mxPoint x="280" y="460" as="targetPoint" />
            <Array as="points">
              <mxPoint x="390" y="330" />
              <mxPoint x="390" y="330" />
            </Array>
          </mxGeometry>
        </mxCell>
        <mxCell id="DlEKcKCL4bjcNaTzVcVd-14" value="Sí" style="edgeLabel;html=1;align=center;verticalAlign=middle;resizable=0;points=[];" vertex="1" connectable="0" parent="DlEKcKCL4bjcNaTzVcVd-13">
          <mxGeometry x="-0.2286" y="-2" relative="1" as="geometry">
            <mxPoint x="2" y="-11" as="offset" />
          </mxGeometry>
        </mxCell>
        <mxCell id="DlEKcKCL4bjcNaTzVcVd-11" value="¿Ha introducido sus datos?" style="ellipse;whiteSpace=wrap;html=1;" vertex="1" parent="1">
          <mxGeometry x="330" y="180" width="120" height="80" as="geometry" />
        </mxCell>
        <mxCell id="DlEKcKCL4bjcNaTzVcVd-24" style="edgeStyle=orthogonalEdgeStyle;rounded=0;orthogonalLoop=1;jettySize=auto;html=1;" edge="1" parent="1" source="DlEKcKCL4bjcNaTzVcVd-18" target="DlEKcKCL4bjcNaTzVcVd-25">
          <mxGeometry relative="1" as="geometry">
            <mxPoint x="320" y="830" as="targetPoint" />
          </mxGeometry>
        </mxCell>
        <mxCell id="DlEKcKCL4bjcNaTzVcVd-26" style="edgeStyle=orthogonalEdgeStyle;rounded=0;orthogonalLoop=1;jettySize=auto;html=1;" edge="1" parent="1" source="DlEKcKCL4bjcNaTzVcVd-18" target="DlEKcKCL4bjcNaTzVcVd-27">
          <mxGeometry relative="1" as="geometry">
            <mxPoint x="500" y="830" as="targetPoint" />
          </mxGeometry>
        </mxCell>
        <mxCell id="DlEKcKCL4bjcNaTzVcVd-18" value="Entrenamiento" style="rounded=0;whiteSpace=wrap;html=1;" vertex="1" parent="1">
          <mxGeometry x="330" y="690" width="120" height="60" as="geometry" />
        </mxCell>
        <mxCell id="DlEKcKCL4bjcNaTzVcVd-20" value="Logros" style="rounded=0;whiteSpace=wrap;html=1;" vertex="1" parent="1">
          <mxGeometry x="440" y="585" width="120" height="60" as="geometry" />
        </mxCell>
        <mxCell id="DlEKcKCL4bjcNaTzVcVd-22" value="Opciones" style="rounded=0;whiteSpace=wrap;html=1;" vertex="1" parent="1">
          <mxGeometry x="230" y="585" width="120" height="60" as="geometry" />
        </mxCell>
        <mxCell id="DlEKcKCL4bjcNaTzVcVd-25" value="Físico" style="rounded=0;whiteSpace=wrap;html=1;" vertex="1" parent="1">
          <mxGeometry x="230" y="800" width="120" height="60" as="geometry" />
        </mxCell>
        <mxCell id="DlEKcKCL4bjcNaTzVcVd-27" value="Técnica" style="rounded=0;whiteSpace=wrap;html=1;" vertex="1" parent="1">
          <mxGeometry x="440" y="800" width="120" height="60" as="geometry" />
        </mxCell>
        <mxCell id="DlEKcKCL4bjcNaTzVcVd-30" value="Remate" style="rounded=0;whiteSpace=wrap;html=1;" vertex="1" parent="1">
          <mxGeometry x="500" y="880" width="80" height="30" as="geometry" />
        </mxCell>
        <mxCell id="DlEKcKCL4bjcNaTzVcVd-31" value="Bloqueo" style="rounded=0;whiteSpace=wrap;html=1;" vertex="1" parent="1">
          <mxGeometry x="500" y="920" width="80" height="30" as="geometry" />
        </mxCell>
        <mxCell id="DlEKcKCL4bjcNaTzVcVd-32" value="Colocación" style="rounded=0;whiteSpace=wrap;html=1;" vertex="1" parent="1">
          <mxGeometry x="500" y="960" width="80" height="30" as="geometry" />
        </mxCell>
        <mxCell id="DlEKcKCL4bjcNaTzVcVd-33" value="Pase" style="rounded=0;whiteSpace=wrap;html=1;" vertex="1" parent="1">
          <mxGeometry x="500" y="1000" width="80" height="30" as="geometry" />
        </mxCell>
        <mxCell id="DlEKcKCL4bjcNaTzVcVd-34" value="Saque" style="rounded=0;whiteSpace=wrap;html=1;" vertex="1" parent="1">
          <mxGeometry x="500" y="1040" width="80" height="30" as="geometry" />
        </mxCell>
        <mxCell id="DlEKcKCL4bjcNaTzVcVd-35" value="Recepción" style="rounded=0;whiteSpace=wrap;html=1;" vertex="1" parent="1">
          <mxGeometry x="500" y="1080" width="80" height="30" as="geometry" />
        </mxCell>
        <mxCell id="DlEKcKCL4bjcNaTzVcVd-36" value="Plancha" style="rounded=0;whiteSpace=wrap;html=1;" vertex="1" parent="1">
          <mxGeometry x="500" y="1120" width="80" height="30" as="geometry" />
        </mxCell>
        <mxCell id="DlEKcKCL4bjcNaTzVcVd-37" value="Salto" style="rounded=0;whiteSpace=wrap;html=1;" vertex="1" parent="1">
          <mxGeometry x="210" y="880" width="80" height="30" as="geometry" />
        </mxCell>
        <mxCell id="DlEKcKCL4bjcNaTzVcVd-38" value="Fuerza" style="rounded=0;whiteSpace=wrap;html=1;" vertex="1" parent="1">
          <mxGeometry x="210" y="920" width="80" height="30" as="geometry" />
        </mxCell>
        <mxCell id="DlEKcKCL4bjcNaTzVcVd-39" value="Resistencia" style="rounded=0;whiteSpace=wrap;html=1;" vertex="1" parent="1">
          <mxGeometry x="210" y="960" width="80" height="30" as="geometry" />
        </mxCell>
        <mxCell id="DlEKcKCL4bjcNaTzVcVd-40" value="Velocidad" style="rounded=0;whiteSpace=wrap;html=1;" vertex="1" parent="1">
          <mxGeometry x="210" y="1000" width="80" height="30" as="geometry" />
        </mxCell>
        <mxCell id="DlEKcKCL4bjcNaTzVcVd-43" value="" style="line;strokeWidth=2;direction=south;html=1;" vertex="1" parent="1">
          <mxGeometry x="285" y="860" width="10" height="170" as="geometry" />
        </mxCell>
        <mxCell id="DlEKcKCL4bjcNaTzVcVd-44" value="" style="line;strokeWidth=2;direction=south;html=1;" vertex="1" parent="1">
          <mxGeometry x="495" y="860" width="10" height="290" as="geometry" />
        </mxCell>
      </root>
    </mxGraphModel>
  </diagram>
</mxfile>
